<svg width="401" height="76" viewBox="0 0 401 76" fill="none" xmlns="http://www.w3.org/2000/svg">
<path d="M41.9432 5.18182H60.8977V49.9091C60.8977 55.2273 59.625 59.8295 57.0795 63.7159C54.5568 67.5795 51.0341 70.5682 46.5114 72.6818C41.9886 74.7727 36.7386 75.8182 30.7614 75.8182C24.7386 75.8182 19.4659 74.7727 14.9432 72.6818C10.4205 70.5682 6.89773 67.5795 4.375 63.7159C1.875 59.8295 0.625 55.2273 0.625 49.9091V5.18182H19.5795V48.2727C19.5795 50.4318 20.0568 52.3636 21.0114 54.0682C21.9659 55.75 23.2841 57.0682 24.9659 58.0227C26.6705 58.9773 28.6023 59.4545 30.7614 59.4545C32.9432 59.4545 34.875 58.9773 36.5568 58.0227C38.2386 57.0682 39.5568 55.75 40.5114 54.0682C41.4659 52.3636 41.9432 50.4318 41.9432 48.2727V5.18182ZM88.9972 45.5455V75H70.179V22.6364H88.0426V32.5909H88.5881C89.7244 29.2727 91.7244 26.6705 94.5881 24.7841C97.4744 22.8977 100.838 21.9545 104.679 21.9545C108.384 21.9545 111.599 22.8068 114.327 24.5114C117.077 26.1932 119.202 28.5114 120.702 31.4659C122.224 34.4205 122.974 37.7955 122.952 41.5909V75H104.134V45.5455C104.156 42.9545 103.497 40.9205 102.156 39.4432C100.838 37.9659 98.9972 37.2273 96.6335 37.2273C95.0881 37.2273 93.7358 37.5682 92.5767 38.25C91.4403 38.9091 90.5653 39.8636 89.9517 41.1136C89.3381 42.3409 89.0199 43.8182 88.9972 45.5455ZM132.241 75V22.6364H151.06V75H132.241ZM141.651 17.1818C139.105 17.1818 136.923 16.3409 135.105 14.6591C133.287 12.9773 132.378 10.9545 132.378 8.59091C132.378 6.22727 133.287 4.20454 135.105 2.52272C136.923 0.840908 139.105 0 141.651 0C144.219 0 146.401 0.840908 148.196 2.52272C150.014 4.20454 150.923 6.22727 150.923 8.59091C150.923 10.9545 150.014 12.9773 148.196 14.6591C146.401 16.3409 144.219 17.1818 141.651 17.1818ZM225.557 31.3636H206.33C206.193 29.7727 205.83 28.3295 205.239 27.0341C204.67 25.7386 203.875 24.625 202.852 23.6932C201.852 22.7386 200.636 22.0114 199.205 21.5114C197.773 20.9886 196.148 20.7273 194.33 20.7273C191.148 20.7273 188.455 21.5 186.25 23.0455C184.068 24.5909 182.409 26.8068 181.273 29.6932C180.159 32.5795 179.602 36.0455 179.602 40.0909C179.602 44.3636 180.17 47.9432 181.307 50.8295C182.466 53.6932 184.136 55.8523 186.318 57.3068C188.5 58.7386 191.125 59.4545 194.193 59.4545C195.943 59.4545 197.511 59.2386 198.898 58.8068C200.284 58.3523 201.489 57.7045 202.511 56.8636C203.534 56.0227 204.364 55.0114 205 53.8295C205.659 52.625 206.102 51.2727 206.33 49.7727L225.557 49.9091C225.33 52.8636 224.5 55.875 223.068 58.9432C221.636 61.9886 219.602 64.8068 216.966 67.3977C214.352 69.9659 211.114 72.0341 207.25 73.6023C203.386 75.1705 198.898 75.9545 193.784 75.9545C187.375 75.9545 181.625 74.5795 176.534 71.8295C171.466 69.0795 167.455 65.0341 164.5 59.6932C161.568 54.3523 160.102 47.8182 160.102 40.0909C160.102 32.3182 161.602 25.7727 164.602 20.4545C167.602 15.1136 171.648 11.0795 176.739 8.35227C181.83 5.60227 187.511 4.22727 193.784 4.22727C198.193 4.22727 202.25 4.82954 205.955 6.03409C209.659 7.23863 212.909 9 215.705 11.3182C218.5 13.6136 220.75 16.4432 222.455 19.8068C224.159 23.1705 225.193 27.0227 225.557 31.3636ZM249.02 75.8182C245.679 75.8182 242.724 75.2727 240.156 74.1818C237.611 73.0682 235.611 71.3864 234.156 69.1364C232.702 66.8864 231.974 64.0227 231.974 60.5455C231.974 57.6818 232.463 55.2386 233.44 53.2159C234.418 51.1705 235.781 49.5 237.531 48.2045C239.281 46.9091 241.315 45.9205 243.634 45.2386C245.974 44.5568 248.497 44.1136 251.202 43.9091C254.134 43.6818 256.486 43.4091 258.259 43.0909C260.054 42.75 261.349 42.2841 262.145 41.6932C262.94 41.0795 263.338 40.2727 263.338 39.2727V39.1364C263.338 37.7727 262.815 36.7273 261.77 36C260.724 35.2727 259.384 34.9091 257.747 34.9091C255.952 34.9091 254.486 35.3068 253.349 36.1023C252.236 36.875 251.565 38.0682 251.338 39.6818H234.02C234.247 36.5 235.259 33.5682 237.054 30.8864C238.872 28.1818 241.52 26.0227 244.997 24.4091C248.474 22.7727 252.815 21.9545 258.02 21.9545C261.77 21.9545 265.134 22.3977 268.111 23.2841C271.088 24.1477 273.622 25.3636 275.713 26.9318C277.804 28.4773 279.395 30.2955 280.486 32.3864C281.599 34.4545 282.156 36.7045 282.156 39.1364V75H264.565V67.6364H264.156C263.111 69.5909 261.838 71.1705 260.338 72.375C258.861 73.5795 257.168 74.4545 255.259 75C253.372 75.5455 251.293 75.8182 249.02 75.8182ZM255.156 63.9545C256.588 63.9545 257.929 63.6591 259.179 63.0682C260.452 62.4773 261.486 61.625 262.281 60.5114C263.077 59.3977 263.474 58.0455 263.474 56.4545V52.0909C262.974 52.2955 262.44 52.4886 261.872 52.6705C261.327 52.8523 260.736 53.0227 260.099 53.1818C259.486 53.3409 258.827 53.4886 258.122 53.625C257.44 53.7614 256.724 53.8864 255.974 54C254.52 54.2273 253.327 54.6023 252.395 55.125C251.486 55.625 250.804 56.25 250.349 57C249.918 57.7273 249.702 58.5455 249.702 59.4545C249.702 60.9091 250.213 62.0227 251.236 62.7955C252.259 63.5682 253.565 63.9545 255.156 63.9545ZM339.011 39.6818H321.693C321.602 38.6136 321.227 37.6932 320.568 36.9205C319.909 36.1477 319.057 35.5568 318.011 35.1477C316.989 34.7159 315.852 34.5 314.602 34.5C312.989 34.5 311.602 34.7955 310.443 35.3864C309.284 35.9773 308.716 36.8182 308.739 37.9091C308.716 38.6818 309.045 39.3977 309.727 40.0568C310.432 40.7159 311.784 41.2273 313.784 41.5909L324.42 43.5C329.784 44.4773 333.773 46.125 336.386 48.4432C339.023 50.7386 340.352 53.8182 340.375 57.6818C340.352 61.4091 339.239 64.6477 337.034 67.3977C334.852 70.125 331.864 72.2386 328.068 73.7386C324.295 75.2159 319.989 75.9545 315.148 75.9545C307.148 75.9545 300.886 74.3182 296.364 71.0455C291.864 67.7727 289.352 63.4545 288.83 58.0909H307.511C307.761 59.75 308.58 61.0341 309.966 61.9432C311.375 62.8295 313.148 63.2727 315.284 63.2727C317.011 63.2727 318.432 62.9773 319.545 62.3864C320.682 61.7955 321.261 60.9545 321.284 59.8636C321.261 58.8636 320.761 58.0682 319.784 57.4773C318.83 56.8864 317.33 56.4091 315.284 56.0455L306.011 54.4091C300.67 53.4773 296.67 51.7045 294.011 49.0909C291.352 46.4773 290.034 43.1136 290.057 39C290.034 35.3636 290.989 32.2841 292.92 29.7614C294.875 27.2159 297.659 25.2841 301.273 23.9659C304.909 22.625 309.216 21.9545 314.193 21.9545C321.761 21.9545 327.727 23.5227 332.091 26.6591C336.477 29.7955 338.784 34.1364 339.011 39.6818ZM366.403 45.5455V75H347.585V5.18182H365.722V32.5909H366.267C367.449 29.25 369.415 26.6477 372.165 24.7841C374.915 22.8977 378.222 21.9545 382.085 21.9545C385.79 21.9545 389.006 22.7955 391.733 24.4773C394.483 26.1591 396.608 28.4773 398.108 31.4318C399.631 34.3864 400.381 37.7727 400.358 41.5909V75H381.54V45.5455C381.563 42.9545 380.915 40.9205 379.597 39.4432C378.301 37.9659 376.449 37.2273 374.04 37.2273C372.517 37.2273 371.176 37.5682 370.017 38.25C368.881 38.9091 367.994 39.8636 367.358 41.1136C366.744 42.3409 366.426 43.8182 366.403 45.5455Z" fill="url(#paint0_linear_199_84)"/>
<defs>
<linearGradient id="paint0_linear_199_84" x1="-4" y1="40" x2="405" y2="40" gradientUnits="userSpaceOnUse">
<stop stop-color="#881C1C"/>
<stop offset="0.821" stop-color="#A23232"/>
</linearGradient>
</defs>
</svg>
